<?xml version="1.0" encoding="UTF-8"?>
<svg width="45px" height="35px" viewBox="0 0 45 35" version="1.1" xmlns="http://www.w3.org/2000/svg" xmlns:xlink="http://www.w3.org/1999/xlink">
    <!-- Generator: Sketch 40.1 (33804) - http://www.bohemiancoding.com/sketch -->
    <title>upload-to-cloud</title>
    <desc>Created with Sketch.</desc>
    <defs></defs>
    <g  stroke="none" stroke-width="1" fill="none" fill-rule="evenodd">
        <g id="Add-listing" transform="translate(-403.000000, -1424.000000)" fill="#909FA5">
            <g id="gallery-images-copy" transform="translate(150.000000, 1212.000000)">
                <g id="drop-files-here" transform="translate(97.000000, 138.000000)">
                    <g id="upload-to-cloud" transform="translate(156.000000, 74.000000)">
                        <g  >
                            <g id="Group">
                                <path d="M34.6274237,11.5524561 C34.2071695,5.1433114 28.8918305,0.0580263158 22.4185424,0.0580263158 C15.9435763,0.0580263158 10.627322,5.14546053 10.2093559,11.5569079 C4.42037288,12.2897588 0,17.2528509 0,23.2080702 C0,29.6913596 5.24135593,34.9660746 11.6839831,34.9660746 L29.4525763,34.9660746 C29.9579492,34.9660746 30.3678305,34.5535965 30.3678305,34.0450219 C30.3678305,33.5364474 29.9579492,33.1239693 29.4525763,33.1239693 L11.6839831,33.1239693 C6.25072881,33.1238158 1.83050847,28.6755921 1.83050847,23.2080702 C1.83050847,17.946557 5.92367797,13.6033333 11.1488644,13.3204167 C11.6345593,13.2941667 12.015,12.8901316 12.015,12.4007456 C12.015,12.3824781 12.0145424,12.3645175 12.0134746,12.34625 C12.0272034,6.58414474 16.6895085,1.90013158 22.4185424,1.90013158 C28.1484915,1.90013158 32.8115593,6.58491228 32.8236102,12.3483991 C32.8228475,12.3662061 32.8222373,12.3849342 32.8222373,12.3989035 C32.8222373,12.8895175 33.2043559,13.2940132 33.6911186,13.3187281 C38.934,13.5859868 43.0407458,17.9298246 43.0407458,23.2079167 C43.0407458,26.2053289 41.7139322,29.0107018 39.4004746,30.9045395 C39.0082881,31.2255263 38.9491017,31.805636 39.2680678,32.2001535 C39.5870339,32.5948246 40.1634915,32.654386 40.5555254,32.3333991 C43.2982373,30.0881798 44.8712542,26.7621053 44.8712542,23.2077632 C44.8712542,17.2342763 40.4359322,12.2693421 34.6274237,11.5524561 L34.6274237,11.5524561 Z"  ></path>
                                <path d="M21.5032881,16.5909211 L21.5032881,28.3360307 C21.5032881,28.8446053 21.9131695,29.2570833 22.4185424,29.2570833 C22.9239153,29.2570833 23.3337966,28.8446053 23.3337966,28.3360307 L23.3337966,16.5909211 C23.3337966,16.0823465 22.9239153,15.6698684 22.4185424,15.6698684 C21.9131695,15.6698684 21.5032881,16.0823465 21.5032881,16.5909211 L21.5032881,16.5909211 Z"  ></path>
                                <path d="M27.653339,18.2988596 C27.8876441,18.2988596 28.1217966,18.2089035 28.3005763,18.0291447 C28.6579831,17.6694737 28.6579831,17.0862939 28.3005763,16.7266228 L23.0657797,11.4586623 C22.7083729,11.0989912 22.1287119,11.0989912 21.7714576,11.4586623 L16.536661,16.7266228 C16.1792542,17.0862939 16.1792542,17.6694737 16.536661,18.0291447 C16.8940678,18.3888158 17.4737288,18.3888158 17.8309831,18.0291447 L22.4185424,13.4125219 L27.0061017,18.0291447 C27.1848814,18.2089035 27.4191864,18.2988596 27.653339,18.2988596 L27.653339,18.2988596 Z"  ></path>
                            </g>
                        </g>
                    </g>
                </g>
            </g>
        </g>
    </g>
</svg>