<?xml version="1.0" encoding="UTF-8"?>
<svg width="44px" height="56px" viewBox="0 0 44 56" version="1.1" xmlns="http://www.w3.org/2000/svg" xmlns:xlink="http://www.w3.org/1999/xlink">
    <!-- Generator: Sketch 40.1 (33804) - http://www.bohemiancoding.com/sketch -->
    <title>google-logo</title>
    <desc>Created with Sketch.</desc>
    <defs>
        <filter x="-50%" y="-50%" width="200%" height="200%" filterUnits="objectBoundingBox" id="filter-1">
            <feOffset dx="0" dy="2" in="SourceAlpha" result="shadowOffsetOuter1"></feOffset>
            <feGaussianBlur stdDeviation="7.5" in="shadowOffsetOuter1" result="shadowBlurOuter1"></feGaussianBlur>
            <feColorMatrix values="0 0 0 0 0   0 0 0 0 0   0 0 0 0 0  0 0 0 0.1 0" type="matrix" in="shadowBlurOuter1" result="shadowMatrixOuter1"></feColorMatrix>
            <feMerge>
                <feMergeNode in="shadowMatrixOuter1"></feMergeNode>
                <feMergeNode in="SourceGraphic"></feMergeNode>
            </feMerge>
        </filter>
    </defs>
    <g  stroke="none" stroke-width="1" fill="none" fill-rule="evenodd">
        <g id="Article" transform="translate(-1193.000000, -1196.000000)" fill="#909FA5">
            <g transform="translate(-1.000000, 267.000000)" id="google-logo">
                <g filter="url(#filter-1)" transform="translate(1208.000000, 942.000000)">
                    <g  >
                        <path d="M16.85805,0 L9.95746667,0 C8.14923333,0 5.87151667,0.272062428 3.9627,1.87440038 C2.52053333,3.13767115 1.819,4.8757515 1.819,6.44574233 C1.819,9.10600457 3.82896667,11.8020797 7.37941667,11.8020797 C7.71431667,11.8020797 8.08123333,11.7674221 8.4524,11.7342085 C8.28466667,12.1423021 8.11551667,12.483391 8.11551667,13.0641952 C8.11551667,14.1218307 8.65186667,14.7687732 9.1205,15.3830797 C7.61486667,15.485031 4.79995,15.6551422 2.72198333,16.9507601 C0.745733333,18.1473149 0.141666667,19.8851064 0.141666667,21.1137196 C0.141383333,23.6382394 2.4871,25.9932256 7.34485,25.9932256 C13.1067167,25.9932256 16.15595,22.7527368 16.15595,19.5440175 C16.15595,17.1922083 14.8160667,16.0308887 13.3418833,14.7687732 L12.13545,13.8142442 C11.7685333,13.5066577 11.2661833,13.0982752 11.2661833,12.347071 C11.2661833,11.597022 11.7685333,11.1184579 12.2031667,10.675129 C13.6096333,9.5499111 15.0175167,8.3559556 15.0175167,5.83172458 C15.0175167,3.2384671 13.4081833,1.87382275 12.63865,1.22601381 L14.7166167,1.22601381 L16.85805,0 L16.85805,0 Z M13.9125167,20.8751595 C13.9125167,22.9898528 12.2031667,24.5583996 8.98676667,24.5583996 C5.40316667,24.5583996 3.09088333,22.8185863 3.09088333,20.3980394 C3.09088333,17.9740267 5.23515,17.1581282 5.97125,16.8849106 C7.37913333,16.4066352 9.18765,16.338764 9.48855,16.338764 C9.82401667,16.338764 9.99146667,16.338764 10.2606333,16.3719776 C12.8072333,18.213742 13.9125167,19.1359239 13.9125167,20.8751595 L13.9125167,20.8751595 Z M11.2319,9.89157761 C10.69555,10.4362801 9.7903,10.8461066 8.95248333,10.8461066 C6.07268333,10.8461066 4.76708333,7.05889364 4.76708333,4.77437792 C4.76708333,3.88714249 4.93481667,2.9669823 5.50318333,2.2501469 C6.03953333,1.56796913 6.9768,1.1240626 7.84833333,1.1240626 C10.6284,1.1240626 12.0697167,4.94477796 12.0697167,7.39998253 C12.0697167,8.01515553 12.0014333,9.10571575 11.2319,9.89157761 L11.2319,9.89157761 Z" id="Google"></path>
                    </g>
                </g>
            </g>
        </g>
    </g>
</svg>