<?xml version="1.0" encoding="UTF-8"?>
<svg width="14px" height="17px" viewBox="0 0 14 17" version="1.1" xmlns="http://www.w3.org/2000/svg" xmlns:xlink="http://www.w3.org/1999/xlink">
    <!-- Generator: Sketch 40 (33762) - http://www.bohemiancoding.com/sketch -->
    <title>Capa_1</title>
    <desc>Created with Sketch.</desc>
    <defs></defs>
    <g  stroke="none" stroke-width="1" fill="none" fill-rule="evenodd">
        <g id="Homepage" transform="translate(-966.000000, -41.000000)" fill="#CBCBCB">
            <g id="open-access" transform="translate(966.000000, 41.000000)">
                <g  >
                    <g id="Layer_5_72_">
                        <path d="M13.5678814,7.11292077 L2.79789723,7.11292077 C2.48663241,7.11292077 2.50002372,6.89368579 2.50002372,6.89368579 L2.50002372,5.20260383 C2.50002372,3.10928142 4.52897233,1.40621585 7.02279842,1.40621585 C8.57192885,1.40621585 9.94071937,2.06382787 10.7560949,3.06348361 C10.8291383,3.15312842 10.9737866,3.34036066 11.2366324,3.34036066 L12.4540237,3.34036066 C12.7722055,3.34036066 12.6950672,3.10282514 12.6301581,2.98740164 C11.6372095,1.22348907 9.49720158,0 7.02285375,0 C3.60519368,0 0.824727273,2.33387705 0.824727273,5.20260383 L0.824727273,6.90529781 C0.824727273,6.90529781 0.86113834,7.11292077 0.570624506,7.11292077 L0.477715415,7.11292077 C0.240379447,7.11292077 0.0461501976,7.27595355 0.0461501976,7.47521585 L0.0461501976,16.6296694 C0.0461501976,16.8289317 0.240379447,16.9919645 0.477715415,16.9919645 L13.5678814,16.9919645 C13.8052727,16.9919645 13.999502,16.8289317 13.999502,16.6296694 L13.999502,15.7871011 C13.999502,15.5746475 13.7633834,15.5855164 13.7633834,15.5855164 L11.8956285,15.5855164 C11.4690988,15.5855164 11.1233043,15.2952623 11.1233043,14.9372404 C11.1233043,14.5792186 11.4690988,14.2889645 11.8956285,14.2889645 L13.699415,14.2889645 C13.699415,14.2889645 13.999502,14.2978825 13.999502,14.0873798 L13.999502,13.2461585 C13.999502,13.0379781 13.7473913,13.0445738 13.7473913,13.0445738 L11.8956285,13.0445738 C11.4690988,13.0445738 11.1233043,12.7543197 11.1233043,12.3962978 C11.1233043,12.038276 11.4690988,11.7480219 11.8956285,11.7480219 L13.7594545,11.7480219 C13.7594545,11.7480219 13.999502,11.7427268 13.999502,11.5464372 L13.999502,10.7051694 C13.999502,10.497918 13.7873992,10.5035847 13.7873992,10.5035847 L11.8956838,10.5035847 C11.4691542,10.5035847 11.1233597,10.2133306 11.1233597,9.85530874 C11.1233597,9.49728689 11.4691542,9.20703279 11.8956838,9.20703279 L13.7634387,9.20703279 C13.7634387,9.20703279 13.9995573,9.22277869 13.9995573,9.00544809 L13.9995573,7.4751694 C13.999502,7.27595355 13.8052727,7.11292077 13.5678814,7.11292077 L13.5678814,7.11292077 Z M8.11883794,12.9715574 C8.11883794,13.2003142 8.12,13.6852322 8.12,13.6852322 C8.12,14.1938388 7.62883794,14.6061585 7.02290909,14.6061585 C6.41698024,14.6061585 5.92581818,14.1938388 5.92581818,13.6852322 C5.92581818,13.6852322 5.92698024,13.2003142 5.92698024,12.9715574 C5.92698024,12.4830164 4.80897233,12.5125574 4.80897233,11.3571148 C4.80897233,10.3307514 5.80020553,9.49872678 7.02296443,9.49872678 C8.24572332,9.49872678 9.23695652,10.3307514 9.23695652,11.3571148 C9.23684585,12.5125574 8.11883794,12.4830164 8.11883794,12.9715574 L8.11883794,12.9715574 Z"  ></path>
                    </g>
                </g>
            </g>
        </g>
    </g>
</svg>