<?xml version="1.0" encoding="UTF-8"?>
<svg width="24px" height="24px" viewBox="0 0 24 24" version="1.1" xmlns="http://www.w3.org/2000/svg" xmlns:xlink="http://www.w3.org/1999/xlink">
    <!-- Generator: Sketch 40.1 (33804) - http://www.bohemiancoding.com/sketch -->
    <title>path-logo</title>
    <desc>Created with Sketch.</desc>
    <defs></defs>
    <g  stroke="none" stroke-width="1" fill="none" fill-rule="evenodd" fill-opacity="0.3">
        <g id="Article" transform="translate(-1203.000000, -1165.000000)" fill="#909FA5">
            <g id="path-logo" transform="translate(1203.000000, 1165.000000)">
                <g  >
                    <path d="M5.94431555,1.05483063 C2.86335035,2.2749884 0.770171694,4.62620882 0.185429234,7.79359629 C-0.173457077,9.73976798 -0.0370301624,11.8609002 0.821457077,13.6774942 C1.01290023,14.0813735 1.24248724,14.4701624 1.51545244,14.8298283 C1.6477587,15.0050116 1.78992111,15.1728445 1.94372158,15.331935 C2.21724362,15.2344872 2.48157773,15.1128167 2.73327146,14.9701531 C3.77462645,14.3822923 4.54307193,13.4766404 5.43491415,12.7154339 C2.45390255,9.26143852 5.61321578,4.98180974 9.56536427,4.02743387 C13.2444362,3.14043619 18.2310905,4.67153596 19.347007,8.45702088 C19.8085754,10.0250394 19.5063202,11.758051 18.2279165,12.8932343 C17.5589791,13.4873318 16.7107378,13.880297 15.8133828,14.0401114 C15.2894478,14.1331601 14.751536,14.1477494 14.2218654,14.0954617 C13.9268492,14.066116 13.6332251,14.0159443 13.3445012,13.9481206 C12.8548677,13.8327425 12.4193039,13.8498933 12.4193039,13.3220603 L12.4193039,9.18281206 L12.4193039,7.11346636 C12.4193039,6.69037587 12.4609002,6.76989327 12.1100325,6.72623666 C11.8330023,6.69249188 11.5566961,6.66531787 11.278942,6.64348956 C10.3027935,6.56709049 9.28248724,6.5147471 8.31419026,6.68157773 C7.95190719,6.74383295 7.92902088,6.68586543 7.92902088,7.07866357 L7.92902088,8.03220418 L7.92902088,10.352464 C7.92902088,12.6641485 8.10314617,15.0031183 8.00748028,17.3105708 C7.9798051,17.9982738 7.96070534,19.648761 7.19109049,19.9894385 C6.29902552,20.3839629 5.51053364,19.5497541 4.68735035,19.3758515 C4.80027842,20.5344223 4.07560093,22.8296798 5.42622738,23.4144223 C6.66442691,23.9508306 8.08922506,24.1504037 9.39480278,23.7075452 C12.1298005,22.780065 13.014181,19.7360186 12.667768,17.235174 C16.889819,18.4963712 21.4471462,16.3861531 23.252826,12.5733828 C24.5384687,9.85876566 23.9956009,6.48651508 22.0599536,4.17806032 C18.4345615,-0.146728538 11.0751926,-0.976148492 5.94431555,1.05483063 L5.94431555,1.05483063 Z" id="Path"></path>
                </g>
            </g>
        </g>
    </g>
</svg>