<?xml version="1.0" encoding="UTF-8"?>
<svg width="22px" height="23px" viewBox="0 0 22 23" version="1.1" xmlns="http://www.w3.org/2000/svg" xmlns:xlink="http://www.w3.org/1999/xlink">
    <!-- Generator: Sketch 40.2 (33826) - http://www.bohemiancoding.com/sketch -->
    <title>paper-plane (1)</title>
    <desc>Created with Sketch.</desc>
    <defs></defs>
    <g  stroke="none" stroke-width="1" fill="none" fill-rule="evenodd">
        <g id="Home-page" transform="translate(-793.000000, -5698.000000)" fill="#c7cfd2">
            <g   transform="translate(0.000000, 5630.000000)">
                <g id="Group-5" transform="translate(520.000000, 57.000000)">
                    <g id="paper-plane-(1)" transform="translate(273.000000, 11.000000)">
                        <g  >
                            <path d="M21.104129,0.0868367347 C20.9439289,-0.0232346939 20.7363812,-0.0291020408 20.5708947,0.0713469388 L0.319021249,12.3413776 C0.147099135,12.4455816 0.0528637517,12.6443673 0.0792956275,12.8464388 C0.105267819,13.0482755 0.247540263,13.2151429 0.439688508,13.2700612 L5.58562997,14.7329082 C5.7419228,14.7770306 5.90947791,14.7413571 6.0352017,14.6366837 L14.2562046,7.77916327 L8.52140693,15.2534592 C8.45222436,15.3431122 8.41521974,15.4538878 8.41521974,15.5677143 L8.41521974,22.2804286 C8.41521974,22.5071429 8.5613995,22.7061633 8.77446341,22.7692959 C8.82066173,22.7833776 8.86754958,22.7897143 8.91397774,22.7897143 C9.08130301,22.7897143 9.24150316,22.7038163 9.33458933,22.5540816 L12.9148444,16.8158163 L18.1488155,18.3033061 C18.2862612,18.3425 18.43382,18.3190306 18.5542575,18.2397041 C18.6740054,18.1601429 18.7549099,18.032 18.7765151,17.887898 L21.318572,0.585091837 C21.3473023,0.390765306 21.2638695,0.196673469 21.104129,0.0868367347 L21.104129,0.0868367347 Z"  ></path>
                        </g>
                    </g>
                </g>
            </g>
        </g>
    </g>
</svg>