<?xml version="1.0" encoding="UTF-8"?>
<svg width="15px" height="16px" viewBox="0 0 15 16" version="1.1" xmlns="http://www.w3.org/2000/svg" xmlns:xlink="http://www.w3.org/1999/xlink">
    <!-- Generator: Sketch 40 (33762) - http://www.bohemiancoding.com/sketch -->
    <title>share</title>
    <desc>Created with Sketch.</desc>
    <defs></defs>
    <g  stroke="none" stroke-width="1" fill="none" fill-rule="evenodd">
        <g id="Homepage" transform="translate(-855.000000, -5053.000000)" fill="#A9A9A9">
            <g id="Blog-style-2" transform="translate(150.000000, 4759.000000)">
                <g id="item-2" transform="translate(390.000000, 276.000000)">
                    <g id="share" transform="translate(315.000000, 18.000000)">
                        <g  >
                            <path d="M11.9358057,9.92814035 C10.9939336,9.92814035 10.1507346,10.3522807 9.59125592,11.0171228 L5.95187204,8.97740351 C6.06504739,8.66301754 6.12725118,8.32498246 6.12725118,7.97270175 C6.12725118,7.62049123 6.06504739,7.28245614 5.95187204,6.96807018 L9.59097156,4.92785965 C10.1503791,5.59291228 10.9937204,6.01719298 11.9356635,6.01719298 C13.6158057,6.01719298 14.9827251,4.66736842 14.9827251,3.00814035 C14.9828673,1.34940351 13.6159479,0 11.9358057,0 C10.2554502,0 8.88838863,1.34940351 8.88838863,3.00807018 C8.88838863,3.36035088 8.95052133,3.69845614 9.06376777,4.01291228 L5.42445498,6.05319298 C4.86504739,5.38849123 4.02191943,4.96449123 3.08026066,4.96449123 C1.39969194,4.96449123 0.0324170616,6.31389474 0.0324170616,7.97263158 C0.0324170616,9.63129825 1.39969194,10.9807018 3.08026066,10.9807018 C4.02191943,10.9807018 4.8649763,10.5567018 5.42438389,9.89207018 L9.06376777,11.9318596 C8.95052133,12.2463158 8.88831754,12.5844912 8.88831754,12.9368421 C8.88831754,14.5955088 10.2553791,15.9449123 11.9357346,15.9449123 C13.6158768,15.9449123 14.9827962,14.5954386 14.9827962,12.9368421 C14.9828673,11.2778947 13.6159479,9.92814035 11.9358057,9.92814035 L11.9358057,9.92814035 Z M11.9358057,1.05263158 C13.0279621,1.05263158 13.9165166,1.92982456 13.9165166,3.00807018 C13.9165166,4.08687719 13.0279621,4.96449123 11.9358057,4.96449123 C10.843436,4.96449123 9.95473934,4.08687719 9.95473934,3.00807018 C9.95473934,1.92982456 10.843436,1.05263158 11.9358057,1.05263158 L11.9358057,1.05263158 Z M3.08033175,9.92814035 C1.98774882,9.92814035 1.09883886,9.05087719 1.09883886,7.97270175 C1.09883886,6.89438596 1.98774882,6.01719298 3.08033175,6.01719298 C4.17248815,6.01719298 5.06097156,6.89438596 5.06097156,7.97270175 C5.06097156,9.05087719 4.17241706,9.92814035 3.08033175,9.92814035 L3.08033175,9.92814035 Z M11.9358057,14.8923509 C10.843436,14.8923509 9.95473934,14.0150877 9.95473934,12.9369123 C9.95473934,11.8583158 10.843436,10.9807719 11.9358057,10.9807719 C13.0279621,10.9807719 13.9165166,11.8583158 13.9165166,12.9369123 C13.9165166,14.0150877 13.0279621,14.8923509 11.9358057,14.8923509 L11.9358057,14.8923509 Z"  ></path>
                        </g>
                    </g>
                </g>
            </g>
        </g>
    </g>
</svg>