<?xml version="1.0" encoding="UTF-8"?>
<svg width="25px" height="17px" viewBox="0 0 25 17" version="1.1" xmlns="http://www.w3.org/2000/svg" xmlns:xlink="http://www.w3.org/1999/xlink">
    <!-- Generator: Sketch 40.1 (33804) - http://www.bohemiancoding.com/sketch -->
    <title>twitter-logo (1)</title>
    <desc>Created with Sketch.</desc>
    <defs></defs>
    <g  stroke="none" stroke-width="1" fill="none" fill-rule="evenodd" fill-opacity="0.3">
        <g id="Article" transform="translate(-1203.000000, -1254.000000)" fill="#909FA5">
            <g transform="translate(-1.000000, 267.000000)" id="twitter-logo-(1)">
                <g transform="translate(1204.000000, 987.000000)">
                    <g  >
                        <path d="M22.1220418,7.56468285 C23.5232599,7.45101785 24.4737239,6.82469115 24.8395012,5.97485558 C24.3340487,6.2801485 22.7650232,6.61298793 21.8984919,6.29600343 C21.8560325,6.0958207 21.8085847,5.90567563 21.762007,5.73400896 C21.1017401,3.35018057 18.8410673,1.42968109 16.4723318,1.66168774 C16.6639791,1.58560689 16.8583527,1.514773 17.0521462,1.4511822 C17.312877,1.35936049 18.8426334,1.11463568 18.6017401,0.583723709 C18.3987239,0.116744742 16.5296984,0.936638443 16.1777842,1.04380179 C16.6423434,0.872021056 17.4106148,0.576537662 17.4929234,0.0516710972 C16.7812065,0.147656149 16.0825406,0.478499454 15.5426914,0.959565354 C15.737587,0.75328019 15.8854408,0.501882622 15.9168213,0.231322263 C14.0185615,1.42369272 12.9096868,3.82759641 12.012297,6.15946854 C11.3076566,5.48802944 10.6831206,4.95928469 10.1228538,4.66568336 C8.55110209,3.83694968 6.67180974,2.97228576 3.72175174,1.89551941 C3.6312065,2.85519883 4.20446636,4.1312354 5.85632251,4.97981625 C5.49843387,4.93270772 4.84396752,5.03781791 4.32053364,5.16106432 C4.5337007,6.26047242 5.22987239,7.16625649 7.11455916,7.60426314 C6.25324826,7.66015462 5.80812065,7.85286614 5.40469838,8.26823104 C5.79698376,9.03286062 6.75423434,9.93277038 8.4762181,9.74804335 C6.56171694,10.5593822 7.69559165,12.0618933 9.25342227,11.8378142 C6.59588167,14.536745 2.40597448,14.3383873 0,12.0809991 C6.28184455,20.4973425 19.937123,17.05842 21.9720998,8.95187501 C23.4967517,8.96465021 24.3930394,8.4325976 24.9487819,7.84602228 C24.0703596,7.99259482 22.7971578,7.84111752 22.1220418,7.56468285 L22.1220418,7.56468285 Z" id="Twitter__x28_alt_x29_"></path>
                    </g>
                </g>
            </g>
        </g>
    </g>
</svg>